<mxfile host="app.diagrams.net" modified="2022-03-17T08:26:46.068Z" agent="5.0 (Windows NT 10.0; WOW64) AppleWebKit/537.36 (KHTML, like Gecko) Chrome/99.0.4844.51 Safari/537.36" etag="EJal20jMUcqUyR2FOKRP" version="17.1.3" type="github">
  <diagram id="OyRcTyBlNtmZmaSBtb3-" name="Page-1">
    <mxGraphModel dx="835" dy="325" grid="1" gridSize="10" guides="1" tooltips="1" connect="1" arrows="1" fold="1" page="1" pageScale="1" pageWidth="827" pageHeight="1169" math="0" shadow="0">
      <root>
        <mxCell id="0" />
        <mxCell id="1" parent="0" />
        <mxCell id="z1wBFRxJV2j2c12fdlnA-1" value="" style="rounded=0;whiteSpace=wrap;html=1;" vertex="1" parent="1">
          <mxGeometry x="535" y="40" width="115" height="60" as="geometry" />
        </mxCell>
        <mxCell id="z1wBFRxJV2j2c12fdlnA-2" value="E1/Читатель" style="text;html=1;align=center;verticalAlign=middle;resizable=0;points=[];autosize=1;strokeColor=none;fillColor=none;" vertex="1" parent="1">
          <mxGeometry x="545" y="20" width="90" height="20" as="geometry" />
        </mxCell>
        <mxCell id="z1wBFRxJV2j2c12fdlnA-4" value="E2/Читательский&lt;br&gt;билет" style="text;html=1;align=center;verticalAlign=middle;resizable=0;points=[];autosize=1;strokeColor=none;fillColor=none;" vertex="1" parent="1">
          <mxGeometry x="270" y="70" width="110" height="30" as="geometry" />
        </mxCell>
        <mxCell id="z1wBFRxJV2j2c12fdlnA-5" value="" style="rounded=0;whiteSpace=wrap;html=1;" vertex="1" parent="1">
          <mxGeometry x="55" y="430" width="120" height="60" as="geometry" />
        </mxCell>
        <mxCell id="z1wBFRxJV2j2c12fdlnA-6" value="E3/Автор" style="text;html=1;align=center;verticalAlign=middle;resizable=0;points=[];autosize=1;strokeColor=none;fillColor=none;" vertex="1" parent="1">
          <mxGeometry x="80" y="410" width="70" height="20" as="geometry" />
        </mxCell>
        <mxCell id="z1wBFRxJV2j2c12fdlnA-7" value="" style="rounded=0;whiteSpace=wrap;html=1;" vertex="1" parent="1">
          <mxGeometry x="520" y="350" width="115" height="60" as="geometry" />
        </mxCell>
        <mxCell id="z1wBFRxJV2j2c12fdlnA-8" value="E4/Раздел (рубрика)" style="text;html=1;align=center;verticalAlign=middle;resizable=0;points=[];autosize=1;strokeColor=none;fillColor=none;" vertex="1" parent="1">
          <mxGeometry x="515" y="330" width="130" height="20" as="geometry" />
        </mxCell>
        <mxCell id="z1wBFRxJV2j2c12fdlnA-9" value="" style="rounded=0;whiteSpace=wrap;html=1;" vertex="1" parent="1">
          <mxGeometry x="395" y="470" width="119" height="60" as="geometry" />
        </mxCell>
        <mxCell id="z1wBFRxJV2j2c12fdlnA-10" value="E5/Издательство" style="text;html=1;align=center;verticalAlign=middle;resizable=0;points=[];autosize=1;strokeColor=none;fillColor=none;" vertex="1" parent="1">
          <mxGeometry x="399" y="450" width="110" height="20" as="geometry" />
        </mxCell>
        <mxCell id="z1wBFRxJV2j2c12fdlnA-13" value="" style="rounded=0;whiteSpace=wrap;html=1;" vertex="1" parent="1">
          <mxGeometry x="310" y="230" width="115" height="60" as="geometry" />
        </mxCell>
        <mxCell id="z1wBFRxJV2j2c12fdlnA-14" value="E7/Запрос на книги" style="text;html=1;align=center;verticalAlign=middle;resizable=0;points=[];autosize=1;strokeColor=none;fillColor=none;" vertex="1" parent="1">
          <mxGeometry x="305" y="210" width="120" height="20" as="geometry" />
        </mxCell>
        <mxCell id="z1wBFRxJV2j2c12fdlnA-15" value="" style="rounded=0;whiteSpace=wrap;html=1;" vertex="1" parent="1">
          <mxGeometry x="50" y="230" width="120" height="60" as="geometry" />
        </mxCell>
        <mxCell id="z1wBFRxJV2j2c12fdlnA-16" value="E8/Выданная книга" style="text;html=1;align=center;verticalAlign=middle;resizable=0;points=[];autosize=1;strokeColor=none;fillColor=none;" vertex="1" parent="1">
          <mxGeometry x="50" y="210" width="120" height="20" as="geometry" />
        </mxCell>
        <mxCell id="z1wBFRxJV2j2c12fdlnA-17" value="" style="rounded=0;whiteSpace=wrap;html=1;" vertex="1" parent="1">
          <mxGeometry x="610" y="200" width="120" height="60" as="geometry" />
        </mxCell>
        <mxCell id="z1wBFRxJV2j2c12fdlnA-18" value="E9/Отказ" style="text;html=1;align=center;verticalAlign=middle;resizable=0;points=[];autosize=1;strokeColor=none;fillColor=none;" vertex="1" parent="1">
          <mxGeometry x="635" y="180" width="70" height="20" as="geometry" />
        </mxCell>
        <mxCell id="z1wBFRxJV2j2c12fdlnA-19" value="" style="rounded=0;whiteSpace=wrap;html=1;" vertex="1" parent="1">
          <mxGeometry x="265" y="100" width="120" height="60" as="geometry" />
        </mxCell>
        <mxCell id="z1wBFRxJV2j2c12fdlnA-20" value="" style="endArrow=none;html=1;rounded=0;exitX=1;exitY=0.5;exitDx=0;exitDy=0;entryX=0;entryY=0.5;entryDx=0;entryDy=0;" edge="1" parent="1" source="z1wBFRxJV2j2c12fdlnA-19" target="z1wBFRxJV2j2c12fdlnA-1">
          <mxGeometry width="50" height="50" relative="1" as="geometry">
            <mxPoint x="400" y="130" as="sourcePoint" />
            <mxPoint x="530" y="70" as="targetPoint" />
            <Array as="points">
              <mxPoint x="460" y="130" />
              <mxPoint x="460" y="70" />
            </Array>
          </mxGeometry>
        </mxCell>
        <mxCell id="z1wBFRxJV2j2c12fdlnA-21" value="Соответствует/&lt;br&gt;Имеет" style="text;html=1;align=center;verticalAlign=middle;resizable=0;points=[];autosize=1;strokeColor=none;fillColor=none;" vertex="1" parent="1">
          <mxGeometry x="409" y="90" width="100" height="30" as="geometry" />
        </mxCell>
        <mxCell id="z1wBFRxJV2j2c12fdlnA-23" value="" style="rounded=0;whiteSpace=wrap;html=1;" vertex="1" parent="1">
          <mxGeometry x="255" y="350" width="120" height="60" as="geometry" />
        </mxCell>
        <mxCell id="z1wBFRxJV2j2c12fdlnA-24" value="E6/Издание (Книга)" style="text;html=1;align=center;verticalAlign=middle;resizable=0;points=[];autosize=1;strokeColor=none;fillColor=none;" vertex="1" parent="1">
          <mxGeometry x="255" y="330" width="120" height="20" as="geometry" />
        </mxCell>
        <mxCell id="z1wBFRxJV2j2c12fdlnA-27" value="" style="endArrow=none;html=1;rounded=0;dashed=1;exitX=0.465;exitY=0.61;exitDx=0;exitDy=0;entryX=0;entryY=0.5;entryDx=0;entryDy=0;exitPerimeter=0;" edge="1" parent="1" source="z1wBFRxJV2j2c12fdlnA-28" target="z1wBFRxJV2j2c12fdlnA-7">
          <mxGeometry relative="1" as="geometry">
            <mxPoint x="315" y="460" as="sourcePoint" />
            <mxPoint x="475" y="460" as="targetPoint" />
            <Array as="points">
              <mxPoint x="340" y="440" />
              <mxPoint x="480" y="440" />
              <mxPoint x="480" y="380" />
            </Array>
          </mxGeometry>
        </mxCell>
        <mxCell id="z1wBFRxJV2j2c12fdlnA-28" value="" style="shape=waypoint;sketch=0;fillStyle=solid;size=6;pointerEvents=1;points=[];fillColor=none;resizable=0;rotatable=0;perimeter=centerPerimeter;snapToPoint=1;" vertex="1" parent="1">
          <mxGeometry x="320" y="390" width="40" height="40" as="geometry" />
        </mxCell>
        <mxCell id="z1wBFRxJV2j2c12fdlnA-29" value="Представляет/Содержит" style="text;html=1;align=center;verticalAlign=middle;resizable=0;points=[];autosize=1;strokeColor=none;fillColor=none;" vertex="1" parent="1">
          <mxGeometry x="335" y="415" width="150" height="20" as="geometry" />
        </mxCell>
        <mxCell id="z1wBFRxJV2j2c12fdlnA-31" value="" style="endArrow=none;html=1;rounded=0;exitX=1;exitY=0.5;exitDx=0;exitDy=0;entryX=0;entryY=0.5;entryDx=0;entryDy=0;" edge="1" parent="1" source="z1wBFRxJV2j2c12fdlnA-5" target="z1wBFRxJV2j2c12fdlnA-23">
          <mxGeometry relative="1" as="geometry">
            <mxPoint x="315" y="460" as="sourcePoint" />
            <mxPoint x="215" y="460" as="targetPoint" />
            <Array as="points">
              <mxPoint x="215" y="460" />
              <mxPoint x="215" y="420" />
              <mxPoint x="215" y="380" />
            </Array>
          </mxGeometry>
        </mxCell>
        <mxCell id="z1wBFRxJV2j2c12fdlnA-33" value="" style="shape=waypoint;sketch=0;fillStyle=solid;size=6;pointerEvents=1;points=[];fillColor=none;resizable=0;rotatable=0;perimeter=centerPerimeter;snapToPoint=1;" vertex="1" parent="1">
          <mxGeometry x="235" y="360" width="40" height="40" as="geometry" />
        </mxCell>
        <mxCell id="z1wBFRxJV2j2c12fdlnA-35" value="" style="endArrow=none;html=1;rounded=0;entryX=0;entryY=0.5;entryDx=0;entryDy=0;exitX=0.5;exitY=1;exitDx=0;exitDy=0;" edge="1" parent="1" source="z1wBFRxJV2j2c12fdlnA-23" target="z1wBFRxJV2j2c12fdlnA-9">
          <mxGeometry relative="1" as="geometry">
            <mxPoint x="315" y="560" as="sourcePoint" />
            <mxPoint x="475" y="470" as="targetPoint" />
            <Array as="points">
              <mxPoint x="315" y="500" />
            </Array>
          </mxGeometry>
        </mxCell>
        <mxCell id="z1wBFRxJV2j2c12fdlnA-36" value="" style="shape=waypoint;sketch=0;fillStyle=solid;size=6;pointerEvents=1;points=[];fillColor=none;resizable=0;rotatable=0;perimeter=centerPerimeter;snapToPoint=1;" vertex="1" parent="1">
          <mxGeometry x="295" y="390" width="40" height="40" as="geometry" />
        </mxCell>
        <mxCell id="z1wBFRxJV2j2c12fdlnA-45" value="" style="endArrow=close;html=1;dashed=1;endSize=12;startArrow=diamondThin;startSize=14;startFill=0;edgeStyle=orthogonalEdgeStyle;rounded=0;entryX=1;entryY=0.5;entryDx=0;entryDy=0;exitX=0.5;exitY=1;exitDx=0;exitDy=0;" edge="1" parent="1" source="z1wBFRxJV2j2c12fdlnA-7" target="z1wBFRxJV2j2c12fdlnA-7">
          <mxGeometry relative="1" as="geometry">
            <mxPoint x="535" y="460" as="sourcePoint" />
            <mxPoint x="725" y="450" as="targetPoint" />
            <Array as="points">
              <mxPoint x="578" y="470" />
              <mxPoint x="665" y="470" />
              <mxPoint x="665" y="380" />
            </Array>
          </mxGeometry>
        </mxCell>
        <mxCell id="z1wBFRxJV2j2c12fdlnA-48" value="" style="shape=waypoint;sketch=0;fillStyle=solid;size=6;pointerEvents=1;points=[];fillColor=none;resizable=0;rotatable=0;perimeter=centerPerimeter;snapToPoint=1;" vertex="1" parent="1">
          <mxGeometry x="615" y="360" width="40" height="40" as="geometry" />
        </mxCell>
        <mxCell id="z1wBFRxJV2j2c12fdlnA-54" value="" style="endArrow=none;html=1;rounded=0;exitDx=0;exitDy=0;startArrow=none;entryX=0;entryY=0.5;entryDx=0;entryDy=0;" edge="1" parent="1" source="z1wBFRxJV2j2c12fdlnA-55" target="z1wBFRxJV2j2c12fdlnA-19">
          <mxGeometry relative="1" as="geometry">
            <mxPoint x="290" y="200" as="sourcePoint" />
            <mxPoint x="260" y="130" as="targetPoint" />
            <Array as="points">
              <mxPoint x="220" y="260" />
              <mxPoint x="220" y="130" />
            </Array>
          </mxGeometry>
        </mxCell>
        <mxCell id="z1wBFRxJV2j2c12fdlnA-55" value="" style="shape=waypoint;sketch=0;fillStyle=solid;size=6;pointerEvents=1;points=[];fillColor=none;resizable=0;rotatable=0;perimeter=centerPerimeter;snapToPoint=1;" vertex="1" parent="1">
          <mxGeometry x="150" y="240" width="40" height="40" as="geometry" />
        </mxCell>
        <mxCell id="z1wBFRxJV2j2c12fdlnA-56" value="" style="endArrow=none;html=1;rounded=0;exitX=1;exitY=0.5;exitDx=0;exitDy=0;entryDx=0;entryDy=0;" edge="1" parent="1" source="z1wBFRxJV2j2c12fdlnA-15" target="z1wBFRxJV2j2c12fdlnA-55">
          <mxGeometry relative="1" as="geometry">
            <mxPoint x="170" y="260" as="sourcePoint" />
            <mxPoint x="265" y="130" as="targetPoint" />
            <Array as="points" />
          </mxGeometry>
        </mxCell>
        <mxCell id="z1wBFRxJV2j2c12fdlnA-58" value="" style="endArrow=none;html=1;dashed=1;rounded=0;entryX=0;entryY=0.5;entryDx=0;entryDy=0;" edge="1" parent="1" target="z1wBFRxJV2j2c12fdlnA-13">
          <mxGeometry relative="1" as="geometry">
            <mxPoint x="295" y="160" as="sourcePoint" />
            <mxPoint x="450" y="280" as="targetPoint" />
            <Array as="points">
              <mxPoint x="295" y="260" />
            </Array>
          </mxGeometry>
        </mxCell>
        <mxCell id="z1wBFRxJV2j2c12fdlnA-59" value="" style="shape=waypoint;sketch=0;fillStyle=solid;size=6;pointerEvents=1;points=[];fillColor=none;resizable=0;rotatable=0;perimeter=centerPerimeter;snapToPoint=1;" vertex="1" parent="1">
          <mxGeometry x="290" y="240" width="40" height="40" as="geometry" />
        </mxCell>
        <mxCell id="z1wBFRxJV2j2c12fdlnA-62" value="" style="endArrow=none;html=1;rounded=0;exitDx=0;exitDy=0;startArrow=none;" edge="1" parent="1" source="z1wBFRxJV2j2c12fdlnA-63">
          <mxGeometry relative="1" as="geometry">
            <mxPoint x="95" y="359.17" as="sourcePoint" />
            <mxPoint x="255" y="359.17" as="targetPoint" />
            <Array as="points">
              <mxPoint x="110" y="360" />
            </Array>
          </mxGeometry>
        </mxCell>
        <mxCell id="z1wBFRxJV2j2c12fdlnA-63" value="" style="shape=waypoint;sketch=0;fillStyle=solid;size=6;pointerEvents=1;points=[];fillColor=none;resizable=0;rotatable=0;perimeter=centerPerimeter;snapToPoint=1;" vertex="1" parent="1">
          <mxGeometry x="90" y="270" width="40" height="40" as="geometry" />
        </mxCell>
        <mxCell id="z1wBFRxJV2j2c12fdlnA-64" value="" style="endArrow=none;html=1;rounded=0;exitX=0.5;exitY=1;exitDx=0;exitDy=0;" edge="1" parent="1" source="z1wBFRxJV2j2c12fdlnA-15" target="z1wBFRxJV2j2c12fdlnA-63">
          <mxGeometry relative="1" as="geometry">
            <mxPoint x="110" y="290" as="sourcePoint" />
            <mxPoint x="255" y="359.1700000000001" as="targetPoint" />
            <Array as="points" />
          </mxGeometry>
        </mxCell>
        <mxCell id="z1wBFRxJV2j2c12fdlnA-65" value="Относится к/&lt;br&gt;Представлено в" style="text;html=1;align=center;verticalAlign=middle;resizable=0;points=[];autosize=1;strokeColor=none;fillColor=none;" vertex="1" parent="1">
          <mxGeometry x="120" y="325" width="110" height="30" as="geometry" />
        </mxCell>
        <mxCell id="z1wBFRxJV2j2c12fdlnA-66" value="Содержит подкатегорию/&lt;br&gt;Входит в надкатегорию" style="text;html=1;align=center;verticalAlign=middle;resizable=0;points=[];autosize=1;strokeColor=none;fillColor=none;" vertex="1" parent="1">
          <mxGeometry x="670" y="405" width="150" height="30" as="geometry" />
        </mxCell>
        <mxCell id="z1wBFRxJV2j2c12fdlnA-67" value="" style="endArrow=none;html=1;rounded=0;entryX=0;entryY=0.5;entryDx=0;entryDy=0;" edge="1" parent="1" target="z1wBFRxJV2j2c12fdlnA-17">
          <mxGeometry relative="1" as="geometry">
            <mxPoint x="385" y="150" as="sourcePoint" />
            <mxPoint x="545" y="150" as="targetPoint" />
            <Array as="points">
              <mxPoint x="440" y="150" />
              <mxPoint x="440" y="230" />
            </Array>
          </mxGeometry>
        </mxCell>
        <mxCell id="z1wBFRxJV2j2c12fdlnA-68" value="" style="shape=waypoint;sketch=0;fillStyle=solid;size=6;pointerEvents=1;points=[];fillColor=none;resizable=0;rotatable=0;perimeter=centerPerimeter;snapToPoint=1;" vertex="1" parent="1">
          <mxGeometry x="590" y="210" width="40" height="40" as="geometry" />
        </mxCell>
        <mxCell id="z1wBFRxJV2j2c12fdlnA-70" value="Принадлежит/&lt;br&gt;Издало" style="text;html=1;align=center;verticalAlign=middle;resizable=0;points=[];autosize=1;strokeColor=none;fillColor=none;" vertex="1" parent="1">
          <mxGeometry x="295" y="500" width="90" height="30" as="geometry" />
        </mxCell>
        <mxCell id="z1wBFRxJV2j2c12fdlnA-72" value="" style="endArrow=none;html=1;dashed=1;rounded=0;exitX=0.75;exitY=1;exitDx=0;exitDy=0;entryX=1;entryY=0.5;entryDx=0;entryDy=0;" edge="1" parent="1" source="z1wBFRxJV2j2c12fdlnA-13" target="z1wBFRxJV2j2c12fdlnA-23">
          <mxGeometry relative="1" as="geometry">
            <mxPoint x="380" y="370" as="sourcePoint" />
            <mxPoint x="540" y="370" as="targetPoint" />
            <Array as="points">
              <mxPoint x="396" y="380" />
            </Array>
          </mxGeometry>
        </mxCell>
        <mxCell id="z1wBFRxJV2j2c12fdlnA-73" value="" style="shape=waypoint;sketch=0;fillStyle=solid;size=6;pointerEvents=1;points=[];fillColor=none;resizable=0;rotatable=0;perimeter=centerPerimeter;snapToPoint=1;" vertex="1" parent="1">
          <mxGeometry x="355" y="360" width="40" height="40" as="geometry" />
        </mxCell>
        <mxCell id="z1wBFRxJV2j2c12fdlnA-75" value="" style="endArrow=none;html=1;dashed=1;rounded=0;exitX=1;exitY=0.5;exitDx=0;exitDy=0;entryX=0.5;entryY=1;entryDx=0;entryDy=0;" edge="1" parent="1" source="z1wBFRxJV2j2c12fdlnA-13" target="z1wBFRxJV2j2c12fdlnA-17">
          <mxGeometry relative="1" as="geometry">
            <mxPoint x="510" y="290" as="sourcePoint" />
            <mxPoint x="670" y="290" as="targetPoint" />
            <Array as="points">
              <mxPoint x="500" y="260" />
              <mxPoint x="500" y="310" />
              <mxPoint x="670" y="310" />
            </Array>
          </mxGeometry>
        </mxCell>
        <mxCell id="z1wBFRxJV2j2c12fdlnA-78" value="" style="shape=waypoint;sketch=0;fillStyle=solid;size=6;pointerEvents=1;points=[];fillColor=none;resizable=0;rotatable=0;perimeter=centerPerimeter;snapToPoint=1;" vertex="1" parent="1">
          <mxGeometry x="650" y="240" width="40" height="40" as="geometry" />
        </mxCell>
        <mxCell id="z1wBFRxJV2j2c12fdlnA-84" value="" style="endArrow=none;html=1;dashed=1;rounded=0;startArrow=none;" edge="1" parent="1" source="z1wBFRxJV2j2c12fdlnA-85">
          <mxGeometry relative="1" as="geometry">
            <mxPoint x="170" y="280" as="sourcePoint" />
            <mxPoint x="310" y="279" as="targetPoint" />
          </mxGeometry>
        </mxCell>
        <mxCell id="z1wBFRxJV2j2c12fdlnA-85" value="" style="shape=waypoint;sketch=0;fillStyle=solid;size=6;pointerEvents=1;points=[];fillColor=none;resizable=0;rotatable=0;perimeter=centerPerimeter;snapToPoint=1;" vertex="1" parent="1">
          <mxGeometry x="150" y="260" width="40" height="40" as="geometry" />
        </mxCell>
        <mxCell id="z1wBFRxJV2j2c12fdlnA-86" value="" style="endArrow=none;html=1;dashed=1;rounded=0;startArrow=none;" edge="1" parent="1" target="z1wBFRxJV2j2c12fdlnA-85">
          <mxGeometry relative="1" as="geometry">
            <mxPoint x="170" y="280" as="sourcePoint" />
            <mxPoint x="310" y="279" as="targetPoint" />
          </mxGeometry>
        </mxCell>
      </root>
    </mxGraphModel>
  </diagram>
</mxfile>
